UNKNOWN
version=1
nRows=58
nColumns=9
inDegrees=no
endheader
time	time	pelvis_tilt	hip_flexion_r	knee_angle_r	ankle_angle_r	hip_flexion_l	knee_angle_l	ankle_angle_l
     88.00000000	      5.25000000	    -11.89483212	    -28.37766345	    -18.42999200	     -1.58670691	     15.78532295	    -12.23182993	    -10.79528294
     89.00000000	      5.26000000	    -11.50275897	    -28.10503312	    -20.56346707	     -2.64026444	     15.49513959	    -13.55661701	    -14.61401524
     90.00000000	      5.27000000	    -10.97594244	    -27.51404642	    -22.97508201	     -4.22743327	     15.19459193	    -14.75187726	    -18.07123138
     91.00000000	      5.28000000	    -10.28232094	    -26.61306774	    -25.69879054	     -6.41214207	     14.86349912	    -15.91396550	    -20.46334798
     92.00000000	      5.29000000	     -9.41353141	    -25.42992588	    -28.76958088	     -9.24748548	     14.50938979	    -17.19095292	    -21.48297862
     93.00000000	      5.30000000	     -8.41385513	    -23.96444608	    -32.19027808	    -12.67186514	     14.24374465	    -18.71856737	    -21.19325843
     94.00000000	      5.31000000	     -7.36371288	    -22.25043550	    -35.91500129	    -16.56383135	     14.06006300	    -20.47413207	    -19.71541768
     95.00000000	      5.32000000	     -6.36278529	    -20.36883895	    -39.82164031	    -20.82765399	     13.88216557	    -22.31776259	    -17.28529077
     96.00000000	      5.33000000	     -5.54464360	    -18.27615617	    -43.74756317	    -25.46566678	     13.75406748	    -24.07181500	    -14.54039565
     97.00000000	      5.34000000	     -4.88932017	    -16.29765258	    -47.47786473	    -30.02108399	     13.36226538	    -25.55048374	    -11.75482044
     98.00000000	      5.35000000	     -4.46415135	    -14.36739675	    -50.89732130	    -34.21747775	     12.78600464	    -26.65432658	     -9.48880443
     99.00000000	      5.36000000	     -4.22521337	    -12.47710523	    -53.96443291	    -37.82781058	     12.06070148	    -27.37077433	     -7.85357776
    100.00000000	      5.37000000	     -4.11715336	    -10.62788835	    -56.66536238	    -41.90635536	     11.21746496	    -27.70951207	     -6.96101511
    101.00000000	      5.38000000	     -4.06896222	     -8.71841782	    -59.04050214	    -41.92658790	     10.34092107	    -27.73275251	     -6.11682747
    102.00000000	      5.39000000	     -4.01761859	     -6.74510739	    -61.05837627	    -52.42323135	      9.44810255	    -27.46744651	     -5.76745997
    103.00000000	      5.40000000	     -3.96201150	     -4.79950436	    -62.78459577	    -50.01591236	      8.45479968	    -26.99656452	     -5.38331653
    104.00000000	      5.41000000	     -3.87600203	     -2.85874708	    -64.18087853	    -47.80933825	      7.39517809	    -26.38564182	     -4.93746406
    105.00000000	      5.42000000	     -3.75896482	     -0.99590564	    -65.23204745	    -46.06673592	      6.21880473	    -25.67020209	     -4.79250879
    106.00000000	      5.43000000	     -3.66643968	      0.77825442	    -65.92458687	    -44.86691498	      4.95218930	    -24.90561014	     -4.72846421
    107.00000000	      5.44000000	     -3.59728864	      2.41247128	    -66.25387436	    -44.19659068	      3.59061718	    -24.11081981	     -4.84356148
    108.00000000	      5.45000000	     -3.54759424	      3.91787749	    -66.23965202	    -44.22683152	      2.14871796	    -23.30894888	     -4.89706668
    109.00000000	      5.46000000	     -3.50875353	      5.43820926	    -65.93258492	    -43.35465492	      0.83306992	    -22.58728102	     -4.47754153
    110.00000000	      5.47000000	     -3.51868898	      6.63442643	    -65.25903174	    -45.14930783	     -0.73231122	    -21.83850560	     -4.13282385
    111.00000000	      5.48000000	     -3.54126131	      7.78085292	    -64.28699418	    -44.55520347	     -2.13843013	    -21.22372939	     -3.45610621
    112.00000000	      5.49000000	     -3.56841202	      8.77378211	    -63.00277747	    -44.22256453	     -3.55468094	    -20.64327837	     -2.82924518
    113.00000000	      5.50000000	     -3.58418977	      9.62686397	    -61.39614153	    -43.64881034	     -4.93718256	    -20.09985689	     -2.21347068
    114.00000000	      5.51000000	     -3.56592820	     10.38701920	    -59.50039546	    -43.02639658	     -6.29159468	    -19.55155850	     -1.66277238
    115.00000000	      5.52000000	     -3.49508040	     11.08030241	    -57.34015064	    -42.41825590	     -7.61503737	    -18.98723103	     -1.20587250
    116.00000000	      5.53000000	     -3.33858753	     11.76157869	    -54.95210396	    -41.74845548	     -8.85097055	    -18.42769605	     -0.88252700
    117.00000000	      5.54000000	     -3.16392823	     12.28962518	    -52.31200606	    -41.23545692	    -10.14921199	    -17.84734680	     -0.63270690
    118.00000000	      5.55000000	     -2.88532460	     12.70807226	    -49.48053997	    -40.94827665	    -11.46701946	    -17.25963723	     -0.41647074
    119.00000000	      5.56000000	     -2.55352398	     13.02320675	    -46.46121074	    -40.72551796	    -12.78598578	    -16.68323722	     -0.25328146
    120.00000000	      5.57000000	     -2.16947493	     13.21815473	    -43.26496910	    -40.61643064	    -14.14129600	    -16.09347849	     -0.08098255
    121.00000000	      5.58000000	     -1.75447579	     13.28391695	    -39.88067158	    -40.65268658	    -15.55376935	    -15.46291628	      0.08233367
    122.00000000	      5.59000000	     -1.32567710	     13.24037240	    -36.29879266	    -40.78868224	    -17.00236442	    -14.79020951	      0.25260438
    123.00000000	      5.60000000	     -0.90203467	     13.11995162	    -32.53781126	    -40.95459314	    -18.45293193	    -14.09487924	      0.42229481
    124.00000000	      5.61000000	     -0.48928493	     12.94350348	    -28.61362222	    -41.09978388	    -19.87654715	    -13.39453106	      0.59595764
    125.00000000	      5.62000000	     -0.10675159	     12.74928546	    -24.58524493	    -41.18837995	    -21.23178307	    -12.72536019	      0.78016021
    126.00000000	      5.63000000	      0.24408527	     12.56094651	    -20.52500090	    -41.18271496	    -22.48828530	    -12.12265432	      0.98600273
    127.00000000	      5.64000000	      0.55338259	     12.41047057	    -16.56674332	    -40.98593495	    -23.62272007	    -11.62604146	      1.18598348
    128.00000000	      5.65000000	      0.86057677	     12.34321691	    -12.83587243	    -40.79554731	    -24.57351790	    -11.29638913	      1.50043407
    129.00000000	      5.66000000	      1.12852326	     12.31344067	     -9.49209920	    -40.24449893	    -25.41609061	    -11.12186604	      1.81217752
    130.00000000	      5.67000000	      1.37124746	     12.33894323	     -6.70778056	    -39.37658083	    -26.17522062	    -11.10249679	      2.15227677
    131.00000000	      5.68000000	      1.59124212	     12.40812904	     -4.63039796	    -38.14356247	    -26.87145366	    -11.26099038	      2.42184904
    132.00000000	      5.69000000	      1.78841584	     12.58674477	     -3.39271210	    -37.10672739	    -27.51467596	    -11.57905263	      2.64001945
    133.00000000	      5.70000000	      1.95007565	     12.84329745	     -3.03006047	    -36.50773875	    -28.11710452	    -12.09282465	      2.89233679
    134.00000000	      5.71000000	      2.04815364	     13.17945429	     -3.49923579	    -36.41680838	    -28.65911216	    -12.80595857	      3.09276416
    135.00000000	      5.72000000	      2.05651658	     13.53740770	     -4.63732073	    -37.71641059	    -29.14187647	    -13.73327800	      3.41808157
    136.00000000	      5.73000000	      1.96709599	     13.86736318	     -6.25991451	    -39.76001494	    -29.57969124	    -14.84622652	      3.57288593
    137.00000000	      5.74000000	      1.77720553	     14.14861083	     -8.13325644	    -42.46045267	    -29.93082388	    -16.15490268	      3.53648417
    138.00000000	      5.75000000	      1.51116259	     14.31458039	    -10.02187024	    -45.50031112	    -30.19993713	    -17.66342531	      3.23738705
    139.00000000	      5.76000000	      1.18849929	     14.38394293	    -11.75076974	    -48.57675828	    -30.27965795	    -19.41997457	      2.58527570
    140.00000000	      5.77000000	      0.81767452	     14.38746452	    -13.24747105	    -51.32641459	    -30.05387812	    -21.48931335	      1.59056431
    141.00000000	      5.78000000	      0.26371691	     14.20345899	    -14.52429073	    -53.22457840	    -29.65169330	    -23.80690404	     -0.38015078
    142.00000000	      5.79000000	     -0.29985610	     14.06431661	    -15.69730847	    -54.13551082	    -28.70793485	    -26.62040600	     -2.77037747
    143.00000000	      5.80000000	     -1.00619410	     13.87370832	    -16.89799671	    -53.93810473	    -27.46427399	    -29.81672361	     -5.98574570
    144.00000000	      5.81000000	     -1.78472479	     13.69553148	    -18.20511303	    -52.97204152	    -25.88277662	    -33.42048574	     -9.91264832
    145.00000000	      5.82000000	     -2.58548206	     13.54557135	    -19.63310916	    -51.58537619	    -24.02671560	    -37.34664725	    -14.37362794
